<svg width="14" height="10" viewBox="0 0 14 10" fill="none" xmlns="http://www.w3.org/2000/svg">
<path fill-rule="evenodd" clip-rule="evenodd" d="M11.774 0.0836364C12.6131 0.132727 13.0252 0.261818 13.405 0.963636C13.8005 1.66455 14 2.87182 14 4.99818V5.00091V5.00545C14 7.12182 13.8005 8.33818 13.4059 9.03182C13.0261 9.73364 12.614 9.86091 11.7749 9.92C10.9358 9.97 8.82788 10 7.00175 10C5.17212 10 3.06337 9.97 2.22513 9.91909C1.38775 9.86 0.975625 9.73273 0.592375 9.03091C0.20125 8.33727 0 7.12091 0 5.00455V5.00273V5V4.99727C0 2.87182 0.20125 1.66455 0.592375 0.963636C0.975625 0.260909 1.38863 0.132727 2.226 0.0827273C3.06337 0.0245455 5.17212 0 7.00175 0C8.82788 0 10.9358 0.0245455 11.774 0.0836364ZM9.625 5L5.25 2.27273V7.72727L9.625 5Z" fill="white"/>
</svg>
