<svg width="15" height="12" viewBox="0 0 15 12" fill="none" xmlns="http://www.w3.org/2000/svg">
<path d="M14.8762 0.223078C14.7293 0.0360567 14.4856 -0.0332992 14.269 0.0499278L0.509523 5.24552C0.234636 5.34991 0.0416887 5.60306 0.00586869 5.90619C-0.029608 6.20789 0.0976503 6.50062 0.336374 6.66911L2.30316 8.07201C2.4937 8.20797 2.73872 8.22256 2.94277 8.11004L7.20912 5.75923L3.88404 8.3535C3.72795 8.47535 3.63468 8.66967 3.63468 8.87319V11.2763C3.63468 11.5241 3.7648 11.7512 3.97422 11.8691C4.18399 11.987 4.43736 11.9753 4.63661 11.838L6.13086 10.8024L7.60028 11.8493C7.72903 11.9415 7.88238 11.99 8.0371 11.99C8.0894 11.99 8.14193 11.9844 8.19366 11.9732C8.4 11.9282 8.58253 11.795 8.69457 11.6077L14.9198 0.88172C15.041 0.675207 15.0236 0.410937 14.8762 0.223078Z" fill="white"/>
</svg>
