<svg width="13" height="15" viewBox="0 0 13 15" fill="none" xmlns="http://www.w3.org/2000/svg">
<path fill-rule="evenodd" clip-rule="evenodd" d="M12.6117 4.05506L12.6156 4.07028C13.0004 5.80854 13.0004 7.57132 12.6156 9.30961L12.6117 9.32484C12.3004 10.5695 10.8969 11.9051 9.60803 12.183L9.59349 12.186C8.55135 12.3826 7.50151 12.4808 6.45211 12.4808C6.14323 12.4808 5.83435 12.4712 5.52564 12.4542L4.10227 13.9175C3.7499 14.2803 3.13026 14.0333 3.13026 13.5305V12.1411C1.88949 11.7906 0.590516 10.5164 0.292072 9.32479L0.288651 9.30957C-0.0962171 7.57132 -0.0962171 5.80854 0.288651 4.07028L0.292072 4.05506C0.603816 2.81037 2.0073 1.47475 3.29576 1.19688L3.31072 1.19392C5.395 0.800594 7.50878 0.800594 9.59349 1.19392L9.60803 1.19688C10.8969 1.47475 12.3004 2.81037 12.6117 4.05506ZM9.36898 11.0656C10.2157 10.8791 11.2813 9.86953 11.4892 9.0575C11.8359 7.48631 11.8359 5.89355 11.4892 4.32231C11.2813 3.51028 10.2161 2.50074 9.36898 2.31423C7.43352 1.95008 5.47069 1.95008 3.5348 2.31423C2.68809 2.50074 1.62286 3.51028 1.41461 4.32231C1.06822 5.8935 1.06822 7.48627 1.41461 9.05746C1.62286 9.86949 2.68809 10.879 3.5348 11.0655L3.53544 11.0657C3.5732 11.073 3.60066 11.1053 3.60066 11.1433V13.445C3.60066 13.56 3.74263 13.6167 3.82345 13.5334L4.92888 12.4114L5.96815 11.3562C5.98363 11.3405 6.00497 11.332 6.02717 11.3326C7.14329 11.3632 8.26052 11.274 9.36898 11.0656ZM8.29396 10.12C8.25199 10.1074 8.21067 10.0961 8.17007 10.085C8.08472 10.0618 8.00259 10.0394 7.92453 10.0073C6.73075 9.51748 5.63208 8.88554 4.76181 7.91681C4.26691 7.36594 3.87956 6.74402 3.55212 6.08585C3.4129 5.80599 3.2933 5.5163 3.17392 5.22711L3.17392 5.2271L3.13262 5.12715C3.011 4.8333 3.19013 4.52972 3.37876 4.30831C3.55576 4.10052 3.78351 3.9415 4.03017 3.82431C4.22269 3.73283 4.4126 3.78557 4.55321 3.94696C4.85717 4.29588 5.13637 4.66264 5.36246 5.06709C5.50148 5.31586 5.46334 5.61995 5.21138 5.78925C5.16217 5.82232 5.11647 5.86 5.07082 5.89764L5.07081 5.89765L5.07081 5.89765L5.0708 5.89765L5.03729 5.92518C4.98725 5.96591 4.94017 6.00706 4.90588 6.06221C4.84318 6.16312 4.84019 6.28214 4.88056 6.39184C5.19128 7.23636 5.715 7.89304 6.57445 8.24674L6.61122 8.26201C6.73674 8.3144 6.86421 8.36759 7.00854 8.35095C7.18023 8.33111 7.2768 8.20359 7.37395 8.07531L7.37395 8.0753C7.42694 8.00533 7.48011 7.93513 7.54573 7.88205C7.72747 7.73508 7.95972 7.73313 8.15549 7.85566C8.3513 7.97822 8.54113 8.1098 8.7298 8.24276L8.76797 8.26965C8.94029 8.39093 9.11114 8.51119 9.27024 8.64975C9.43449 8.79283 9.49107 8.98053 9.39857 9.1747C9.22923 9.5303 8.98283 9.82614 8.62738 10.015C8.55873 10.0514 8.48095 10.071 8.40242 10.0908C8.36615 10.0999 8.32972 10.1091 8.29396 10.12ZM9.5742 6.01264C9.29936 4.48586 8.01685 3.46097 6.45536 3.4177L6.42904 3.41738H6.42904H6.42903C6.40756 3.41704 6.38611 3.4167 6.36474 3.41787C6.25403 3.42375 6.15588 3.51531 6.17663 3.63031C6.19997 3.75987 6.33166 3.77301 6.44022 3.78383L6.45903 3.78573C6.51393 3.79143 6.569 3.79614 6.62406 3.80084C6.74605 3.81127 6.86803 3.82169 6.98806 3.84287C8.14587 4.04711 9.0734 4.99887 9.23505 6.14929C9.25947 6.32313 9.27151 6.49875 9.28355 6.67423L9.28356 6.67447L9.28358 6.67471C9.28662 6.71906 9.28966 6.76341 9.2929 6.80771C9.30103 6.91873 9.35735 7.02231 9.48252 7.02083C9.60371 7.01939 9.6673 6.91387 9.65853 6.80281L9.65096 6.70519C9.63314 6.47335 9.61526 6.24075 9.5742 6.01264ZM8.8275 6.46786C8.82717 6.47126 8.82684 6.47508 8.82647 6.47926C8.82447 6.50214 8.82155 6.53552 8.81302 6.56745C8.77158 6.72249 8.5339 6.74191 8.47916 6.58542C8.46296 6.53898 8.46052 6.48616 8.46043 6.43617C8.45988 6.10907 8.38799 5.78231 8.22122 5.49772C8.04978 5.20522 7.78786 4.95933 7.48064 4.81054C7.29488 4.72058 7.09398 4.66467 6.89038 4.63135C6.83498 4.62229 6.77921 4.61544 6.72343 4.6086L6.72339 4.60859C6.68959 4.60444 6.65578 4.60029 6.62205 4.59565C6.51368 4.58076 6.45583 4.51246 6.46096 4.40685C6.46575 4.30789 6.53887 4.23671 6.64792 4.2428C7.00627 4.26293 7.3524 4.33952 7.67098 4.50637C8.31885 4.84569 8.68892 5.38129 8.79694 6.09647C8.79868 6.10807 8.80081 6.11963 8.80294 6.13119L8.80295 6.13121C8.80676 6.15192 8.81057 6.17262 8.81216 6.19349C8.81646 6.24996 8.81964 6.30647 8.82332 6.37185L8.82837 6.46011C8.82807 6.46235 8.82779 6.46495 8.8275 6.46786ZM7.6431 6.23506C7.65657 6.35353 7.72649 6.42504 7.85713 6.42272C7.91662 6.41874 7.9776 6.37793 7.99671 6.29647C8.00752 6.25041 8.00305 6.19966 7.9988 6.15134L7.99838 6.14659C7.93663 5.44173 7.50395 5.13218 6.89855 5.08896C6.80169 5.08202 6.71544 5.15045 6.7006 5.23813C6.68427 5.33447 6.7417 5.41762 6.84553 5.44278C6.89033 5.45364 6.93599 5.45776 6.98172 5.46189C7.03359 5.46657 7.08556 5.47125 7.13649 5.4858C7.21192 5.50732 7.28393 5.54069 7.34748 5.5865C7.4821 5.68347 7.56715 5.83015 7.60641 5.98841C7.62356 6.05757 7.63143 6.12921 7.63926 6.20049C7.64053 6.21202 7.6418 6.22355 7.6431 6.23506Z" fill="white"/>
</svg>
