<svg width="14" height="14" viewBox="0 0 14 14" fill="none" xmlns="http://www.w3.org/2000/svg">
<path d="M6.99563 0C3.13216 0 0 3.13172 0 6.99424C0 9.85917 1.72215 12.3197 4.1874 13.4014C4.16653 12.9126 4.18283 12.3269 4.30804 11.7957C4.44327 11.2274 5.20908 7.98346 5.20908 7.98346C5.20908 7.98346 4.98586 7.53683 4.98586 6.87717C4.98586 5.84033 5.58652 5.06634 6.33414 5.06634C6.97113 5.06634 7.27779 5.54452 7.27779 6.11637C7.27779 6.7556 6.87042 7.71284 6.6608 8.59862C6.4857 9.34082 7.0328 9.94626 7.76412 9.94626C9.08976 9.94626 9.98261 8.24338 9.98261 6.22706C9.98261 4.69434 8.94999 3.54677 7.07183 3.54677C4.94954 3.54677 3.62844 5.12895 3.62844 6.89621C3.62844 7.50595 3.80721 7.93535 4.0894 8.26789C4.21828 8.42122 4.23641 8.48292 4.18923 8.65805C4.15564 8.78691 4.07941 9.09674 4.04676 9.21922C4.00042 9.39665 3.8571 9.45969 3.69652 9.39482C2.71935 8.9951 2.26474 7.9258 2.26474 6.72247C2.26474 4.73514 3.94061 2.35293 7.26329 2.35293C9.93444 2.35293 11.6929 4.2849 11.6929 6.35949C11.6929 9.10352 10.1668 11.1539 7.91748 11.1539C7.16256 11.1539 6.45211 10.7451 6.20893 10.2815C6.20893 10.2815 5.80246 11.8936 5.71721 12.2044C5.56839 12.7433 5.27803 13.283 5.01305 13.7031C5.64188 13.8886 6.30693 13.9898 6.99563 13.9898C10.8591 13.9898 13.9903 10.8581 13.9903 6.99418C13.9903 3.13172 10.8591 0 6.99563 0Z" fill="white"/>
</svg>
