<svg width="16" height="16" viewBox="0 0 16 16" fill="none" xmlns="http://www.w3.org/2000/svg">
<path d="M8.66667 14H6V6H8.66667V7.33333C9.23509 6.61017 10.0971 6.17905 11.0167 6.158C12.6704 6.16718 14.0048 7.51292 14 9.16667V14H11.3333V9.5C11.2267 8.75508 10.5878 8.20238 9.83533 8.204C9.50618 8.2144 9.1955 8.35852 8.97496 8.60308C8.75442 8.84764 8.6431 9.17153 8.66667 9.5V14ZM4.66667 14H2V6H4.66667V14ZM3.33333 4.66667C2.59695 4.66667 2 4.06971 2 3.33333C2 2.59695 2.59695 2 3.33333 2C4.06971 2 4.66667 2.59695 4.66667 3.33333C4.66667 3.68696 4.52619 4.02609 4.27614 4.27614C4.02609 4.52619 3.68696 4.66667 3.33333 4.66667Z" fill="#1C1C1C"/>
</svg>
