<svg width="19" height="15" viewBox="0 0 19 15" fill="none" xmlns="http://www.w3.org/2000/svg">
<path d="M1.21097 6.62953C0.403656 5.90432 0 4.96702 0 3.81762C0 2.65455 0.403656 1.73093 1.21097 1.04677C2.01828 0.348923 3.0582 0 4.33075 0C5.60329 0 6.64321 0.348923 7.45052 1.04677C8.25783 1.73093 8.66149 2.65455 8.66149 3.81762C8.66149 4.96702 8.25783 5.90432 7.45052 6.62953C6.64321 7.32738 5.60329 7.6763 4.33075 7.6763C3.0582 7.6763 2.01828 7.32738 1.21097 6.62953ZM2.87348 3.81762C2.87348 4.25549 3.01031 4.59757 3.28398 4.84387C3.55764 5.09017 3.90656 5.21331 4.33075 5.21331C4.78229 5.21331 5.13806 5.09017 5.39804 4.84387C5.65802 4.59757 5.78801 4.25549 5.78801 3.81762C5.78801 3.40713 5.65118 3.07873 5.37751 2.83243C5.11753 2.58613 4.76861 2.46298 4.33075 2.46298C3.89288 2.46298 3.53712 2.58613 3.26345 2.83243C3.00347 3.07873 2.87348 3.40713 2.87348 3.81762ZM10.714 13.8132C9.90667 13.088 9.50301 12.1507 9.50301 11.0013C9.50301 9.83825 9.90667 8.91463 10.714 8.23047C11.5076 7.53262 12.5475 7.1837 13.8338 7.1837C15.12 7.1837 16.1599 7.53262 16.9535 8.23047C17.7608 8.91463 18.1645 9.83825 18.1645 11.0013C18.1645 12.1507 17.7608 13.088 16.9535 13.8132C16.1599 14.5111 15.12 14.86 13.8338 14.86C12.5475 14.86 11.5076 14.5111 10.714 13.8132ZM12.3765 11.0013C12.3765 11.4392 12.5133 11.7813 12.787 12.0276C13.0607 12.2739 13.4096 12.397 13.8338 12.397C14.2853 12.397 14.6411 12.2739 14.901 12.0276C15.161 11.7813 15.291 11.4392 15.291 11.0013C15.291 10.5908 15.1542 10.2624 14.8805 10.0161C14.6205 9.76983 14.2716 9.64668 13.8338 9.64668C13.3959 9.64668 13.0401 9.76983 12.7665 10.0161C12.5065 10.2624 12.3765 10.5908 12.3765 11.0013ZM4.84387 14.86L3.07873 13.649L13.2796 0L15.0037 1.29307L4.84387 14.86Z" fill="white"/>
</svg>
