<svg width="19" height="19" viewBox="0 0 19 19" fill="none" xmlns="http://www.w3.org/2000/svg">
<path d="M9.83708 18.906C9.30636 18.9076 8.79712 18.6965 8.42308 18.32L0.586076 10.485C0.172548 10.0728 -0.0394513 9.50008 0.00607562 8.918L0.506076 2.352C0.577494 1.36368 1.36549 0.57867 2.35408 0.511003L8.92008 0.0110029C8.97208 1.42399e-06 9.02308 1.42613e-06 9.07508 1.42613e-06C9.60473 -0.000632853 10.1127 0.210331 10.4861 0.586003L18.3231 8.42C18.6983 8.7951 18.9091 9.30393 18.9091 9.8345C18.9091 10.3651 18.6983 10.8739 18.3231 11.249L11.2511 18.32C10.8769 18.6963 10.3678 18.9073 9.83708 18.906ZM5.59408 3.592C4.6889 3.59226 3.89674 4.20044 3.66267 5.07483C3.42861 5.94922 3.81099 6.87181 4.59499 7.32425C5.37898 7.77668 6.36911 7.64616 7.00908 7.006L7.01608 7L7.02308 6.993L7.01508 7C7.58351 6.42656 7.75138 5.56756 7.44064 4.82231C7.1299 4.07706 6.40151 3.59176 5.59408 3.592Z" fill="white"/>
</svg>
